<?xml version="1.0" encoding="UTF-8"?>
<svg width="51px" height="22px" viewBox="0 0 51 22" version="1.1" xmlns="http://www.w3.org/2000/svg" xmlns:xlink="http://www.w3.org/1999/xlink">
    <title>F92FF9CE-54ED-4BC7-A6E3-6DEB5FFF3AFB</title>
    <g id="Proto" stroke="none" stroke-width="1" fill="none" fill-rule="evenodd">
        <g id="home" transform="translate(-102.000000, -105.000000)" fill="#06A7E0" fill-rule="nonzero">
            <g id="Group" transform="translate(66.000000, 52.000000)">
                <path d="M81.0859873,54.0574659 C80.9383238,54.857433 80.775894,55.6498532 80.561782,56.412086 C79.9338583,58.7136908 78.8452437,60.8569538 77.3648678,62.7061665 C75.8173318,64.5733899 73.8554766,66.0353546 71.6429084,66.9701419 C68.8993405,68.0602728 65.9688667,68.5736305 63.0267448,68.4795137 C59.3794571,68.4795137 55.7543189,68.0267022 52.4761899,66.215456 C47.6749697,63.585904 44.0632413,59.1497884 42.4055412,53.8461538 L36.7426471,58.4874722 C39.2160102,66.8871264 45.9346981,70.9397898 49.9216118,72.7359423 C53.9085255,74.5320947 58.3310465,75 62.7240347,75 C67.9956206,75 72.2852445,74.1396581 75.5929062,72.4189742 C78.655014,70.9028071 81.340921,68.6966389 83.4486028,65.9664096 C85.0466126,63.8401035 86.2570705,61.4370947 87.0220588,58.872362 L81.0859873,54.0574659 Z" id="Path"></path>
            </g>
        </g>
    </g>
</svg>