<?xml version="1.0" encoding="utf-8"?>
<!-- Generator: Adobe Illustrator 26.0.1, SVG Export Plug-In . SVG Version: 6.00 Build 0)  -->
<svg version="1.1" id="Layer_1" xmlns="http://www.w3.org/2000/svg" xmlns:xlink="http://www.w3.org/1999/xlink" x="0px" y="0px"
	 viewBox="0 0 252.7 75" style="enable-background:new 0 0 252.7 75;" xml:space="preserve">
<style type="text/css">
	.st0{fill:#2D6FB7;}
	.st1{fill:#06A7E0;}
	.st2{fill:#949598;}
</style>
<g id="Proto">
	<g id="home" transform="translate(-66.000000, -52.000000)">
		<g id="Group" transform="translate(66.000000, 52.000000)">
			<path id="Path" class="st0" d="M30.6,13C29.6,10.9,28,9.2,26,8c-2.1-1.3-4.6-2-7.1-2c-1.2,0-2.5,0.1-3.7,0.4
				C14.1,6.7,13,7.2,12,7.8c-0.9,0.6-1.7,1.4-2.3,2.4c-0.6,1.1-0.9,2.3-0.9,3.5c-0.1,2.2,1,4.2,2.7,5.3c1.8,1.2,4.7,2.3,8.6,3.1
				c5.6,1.2,9.8,2.9,12.5,5.2c2.7,2.3,4.2,5.7,4,9.2c0.2,4.7-2,9.2-5.7,11.9c-1.7,1.2-3.7,2.1-5.7,2.6c-2.1,0.5-4.3,0.8-6.4,0.8
				c-3.6,0-7.2-0.8-10.5-2.3C4.9,48.1,2,45.6,0,42.3l5.5-4.2c1.3,2.3,3.2,4.2,5.4,5.5c2.4,1.5,5.1,2.2,7.9,2.2
				c1.4,0,2.9-0.1,4.3-0.4c1.3-0.2,2.5-0.7,3.6-1.5c2.2-1.5,3.5-4,3.4-6.8c0-2.6-1.2-4.6-3.6-5.9c-3.3-1.6-6.8-2.9-10.4-3.6
				c-1.4-0.3-2.9-0.8-4.5-1.3C9.8,25.8,8.3,25,7,24c-1.4-1-2.5-2.3-3.4-3.9c-0.9-1.8-1.4-3.8-1.3-5.8c-0.1-2.3,0.4-4.5,1.4-6.5
				c0.9-1.8,2.2-3.3,3.8-4.4c1.7-1.2,3.5-2.1,5.4-2.6C15,0.3,17.1,0,19.2,0c3.4,0,6.7,0.8,9.7,2.3c2.9,1.4,5.4,3.7,7,6.6L30.6,13z"
				/>
			<path id="Shape" class="st0" d="M122.2,26c-2.8,0-5.7,0.1-8.5,0.4c-2.6,0.2-5.3,0.7-7.8,1.5c-2.1,0.6-4.1,1.7-5.7,3.2
				c-1.5,1.4-2.3,3.5-2.2,5.6c-0.1,1.5,0.3,3.1,1,4.4c0.6,1.2,1.5,2.2,2.6,2.9c1.1,0.7,2.3,1.3,3.6,1.6c1.3,0.3,2.6,0.5,4,0.5
				c2.2,0,4.4-0.4,6.5-1.3c1.8-0.8,3.4-2.1,4.7-3.6c1.3-1.5,2.3-3.3,2.9-5.2c0.7-2,1-4.2,1-6.3v-3.7L122.2,26z M124.2,18.7
				c0-4.3-1.1-7.4-3.2-9.5c-2.2-2.1-5.3-3.1-9.4-3.1c-2.7,0-5.4,0.5-7.9,1.6c-2.3,1-4.4,2.4-6.1,4.3l-3.8-4.7
				c2.2-2.2,4.8-3.9,7.7-5.1c3.5-1.4,7.1-2.1,10.8-2c2.4,0,4.8,0.4,7.2,1.1c2.1,0.7,4.1,1.8,5.9,3.3c1.7,1.5,3.1,3.4,3.9,5.6
				c1,2.5,1.5,5.2,1.4,7.9v21.6c0,1.9,0.1,3.9,0.2,5.9c0.1,1.7,0.3,3.5,0.6,5.2h-6.2c-0.2-1.2-0.4-2.5-0.5-3.9s-0.2-2.8-0.2-4.1
				h-0.2c-1.8,3-4.3,5.4-7.3,7.1c-4.9,2.3-10.3,2.8-15.5,1.3c-1.9-0.5-3.7-1.4-5.3-2.6c-1.6-1.2-3-2.8-3.9-4.7
				c-1.1-2.1-1.6-4.6-1.6-7c0-3.8,0.9-6.8,2.8-9.1c2-2.3,4.6-4,7.5-5c3.4-1.2,7-1.9,10.6-2.1c4-0.3,8.2-0.5,12.5-0.5L124.2,18.7z"/>
			<path id="Shape_00000158730549050451550800000008252542845806059676_" class="st0" d="M77.5,38.9c-1.7,1.7-3.7,3-5.9,3.9
				c-2.4,0.9-4.9,1.4-7.4,1.4c-2.6,0-5.3-0.5-7.7-1.5c-2.2-0.9-4.1-2.4-5.7-4.1c-1.6-1.8-2.8-3.8-3.5-6.1c-1.7-4.7-1.7-9.9,0-14.7
				c0.8-2.2,2-4.2,3.5-6c1.6-1.8,3.5-3.2,5.7-4.2C59,6.5,61.6,5.9,64.3,6c2.5,0,5.1,0.5,7.4,1.6c6.8,3.1,11.1,10,11.1,17.6
				c0,2.7-0.4,5.3-1.4,7.8C80.5,35.1,79.2,37.2,77.5,38.9 M82,40.6v9.2c0,1.5,0.1,2.3,0,3.1l6,4.8c0.6-2.6,0.9-5.3,1-8V1.3h-7v8.5
				h-0.2c-1.9-3.1-4.7-5.6-7.9-7.2C70.6,0.9,67.1,0,63.6,0c-3.5-0.1-7,0.6-10.2,2c-2.9,1.2-5.6,3.1-7.8,5.4c-2.2,2.3-3.9,5.1-5,8.1
				c-1.2,3.1-1.8,6.5-1.8,9.8c0,3.4,0.6,6.7,1.8,9.9c1.1,3,2.9,5.6,5,7.9c2.2,2.2,4.9,4,7.8,5.1c3.2,1.3,6.7,2,10.2,1.9
				c3.6,0,7.1-0.9,10.3-2.5c3.2-1.5,6-4,7.9-7.1L82,40.6z"/>
			<path id="Path_00000013153016532743023290000005669689088571225226_" class="st1" d="M81.1,54.1c-0.1,0.8-0.3,1.6-0.5,2.4
				c-0.6,2.3-1.7,4.4-3.2,6.3c-1.5,1.9-3.5,3.3-5.7,4.3c-2.7,1.1-5.7,1.6-8.6,1.5c-3.6,0-7.3-0.5-10.6-2.3
				c-4.8-2.6-8.4-7.1-10.1-12.4l-5.7,4.6c2.5,8.4,9.2,12.5,13.2,14.2c4,1.8,8.4,2.3,12.8,2.3c5.3,0,9.6-0.9,12.9-2.6
				c3.1-1.5,5.7-3.7,7.9-6.5c1.6-2.1,2.8-4.5,3.6-7.1L81.1,54.1z"/>
		</g>
	</g>
</g>
<g id="PARTNERS">
	<path class="st2" d="M138,31.2c1.1-0.2,2.6-0.3,4.5-0.3c2.3,0,4,0.5,5.1,1.5c1,0.9,1.6,2.2,1.6,3.8c0,1.6-0.5,2.9-1.4,3.9
		c-1.2,1.3-3.2,2-5.5,2c-0.7,0-1.3,0-1.9-0.2v7.2H138V31.2z M140.4,40c0.5,0.1,1.2,0.2,1.9,0.2c2.8,0,4.5-1.4,4.5-3.9
		c0-2.4-1.7-3.5-4.3-3.5c-1,0-1.8,0.1-2.2,0.2V40z"/>
	<path class="st2" d="M153,43.4l-1.9,5.7h-2.4l6.1-18.1h2.8l6.2,18.1h-2.5l-1.9-5.7H153z M158.9,41.6l-1.8-5.2
		c-0.4-1.2-0.7-2.3-0.9-3.3h-0.1c-0.3,1.1-0.6,2.2-0.9,3.3l-1.8,5.2H158.9z"/>
	<path class="st2" d="M166.5,31.3c1.2-0.2,2.9-0.4,4.5-0.4c2.5,0,4.1,0.5,5.2,1.5c0.9,0.8,1.4,2,1.4,3.4c0,2.4-1.5,4-3.4,4.6v0.1
		c1.4,0.5,2.2,1.8,2.7,3.6c0.6,2.5,1,4.3,1.4,5h-2.4c-0.3-0.5-0.7-2.1-1.2-4.3c-0.5-2.5-1.5-3.4-3.6-3.5h-2.2v7.8h-2.3V31.3z
		 M168.8,39.5h2.4c2.5,0,4.1-1.4,4.1-3.4c0-2.3-1.7-3.4-4.2-3.4c-1.1,0-1.9,0.1-2.3,0.2V39.5z"/>
	<path class="st2" d="M184.6,33h-5.5v-2h13.4v2h-5.5v16.1h-2.4V33z"/>
	<path class="st2" d="M194.5,49.1V31h2.5l5.8,9.1c1.3,2.1,2.4,4,3.2,5.9l0.1,0c-0.2-2.4-0.3-4.6-0.3-7.4V31h2.2v18.1h-2.4l-5.7-9.2
		c-1.3-2-2.5-4.1-3.4-6l-0.1,0c0.1,2.3,0.2,4.5,0.2,7.5v7.7H194.5z"/>
	<path class="st2" d="M221.5,40.6h-7v6.5h7.8v2h-10.2V31h9.8v2h-7.4v5.7h7V40.6z"/>
	<path class="st2" d="M225.3,31.3c1.2-0.2,2.9-0.4,4.5-0.4c2.5,0,4.1,0.5,5.2,1.5c0.9,0.8,1.4,2,1.4,3.4c0,2.4-1.5,4-3.4,4.6v0.1
		c1.4,0.5,2.2,1.8,2.7,3.6c0.6,2.5,1,4.3,1.4,5h-2.4c-0.3-0.5-0.7-2.1-1.2-4.3c-0.5-2.5-1.5-3.4-3.6-3.5h-2.2v7.8h-2.3V31.3z
		 M227.6,39.5h2.4c2.5,0,4.1-1.4,4.1-3.4c0-2.3-1.7-3.4-4.2-3.4c-1.1,0-1.9,0.1-2.3,0.2V39.5z"/>
	<path class="st2" d="M239.4,46.3c1,0.6,2.6,1.2,4.2,1.2c2.4,0,3.8-1.3,3.8-3.1c0-1.7-1-2.7-3.4-3.6c-3-1-4.8-2.6-4.8-5.1
		c0-2.8,2.3-4.9,5.8-4.9c1.9,0,3.2,0.4,4,0.9l-0.6,1.9c-0.6-0.3-1.8-0.9-3.4-0.9c-2.5,0-3.4,1.5-3.4,2.7c0,1.7,1.1,2.5,3.6,3.5
		c3.1,1.2,4.6,2.7,4.6,5.3c0,2.8-2.1,5.2-6.3,5.2c-1.7,0-3.6-0.5-4.6-1.2L239.4,46.3z"/>
</g>
<g>
	<path class="st2" d="M138,3.3c1.4-0.2,3.1-0.4,5-0.4c3.4,0,5.7,0.8,7.3,2.3c1.6,1.5,2.5,3.6,2.5,6.5c0,3-0.9,5.4-2.6,7
		c-1.7,1.7-4.5,2.6-8,2.6c-1.7,0-3.1-0.1-4.2-0.2V3.3z M140.3,19.2c0.6,0.1,1.4,0.1,2.4,0.1c5,0,7.7-2.8,7.7-7.7c0-4.3-2.4-7-7.3-7
		c-1.2,0-2.1,0.1-2.7,0.2V19.2z"/>
	<path class="st2" d="M165.2,12.6h-7v6.5h7.8v2h-10.2V3h9.8v2h-7.4v5.7h7V12.6z"/>
	<path class="st2" d="M169,21.1V3h2.5l5.8,9.1c1.3,2.1,2.4,4,3.2,5.9l0.1,0c-0.2-2.4-0.3-4.6-0.3-7.4V3h2.2v18.1h-2.4l-5.7-9.2
		c-1.3-2-2.5-4.1-3.4-6l-0.1,0c0.1,2.3,0.2,4.5,0.2,7.5v7.7H169z"/>
	<path class="st2" d="M190.1,5h-5.5V3H198v2h-5.5v16.1h-2.4V5z"/>
	<path class="st2" d="M200.9,15.4l-1.9,5.7h-2.4L202.8,3h2.8l6.2,18.1h-2.5l-1.9-5.7H200.9z M206.9,13.6l-1.8-5.2
		c-0.4-1.2-0.7-2.3-0.9-3.3h-0.1c-0.3,1.1-0.6,2.2-0.9,3.3l-1.8,5.2H206.9z"/>
	<path class="st2" d="M214.4,3h2.3v16.1h7.7v2h-10.1V3z"/>
</g>
</svg>
