<?xml version="1.0" encoding="utf-8"?>
<!-- Generator: Adobe Illustrator 26.0.2, SVG Export Plug-In . SVG Version: 6.00 Build 0)  -->
<svg version="1.1" id="Layer_1" xmlns="http://www.w3.org/2000/svg" xmlns:xlink="http://www.w3.org/1999/xlink" x="0px" y="0px"
	 viewBox="0 0 327 93" style="enable-background:new 0 0 327 93;" xml:space="preserve">
<style type="text/css">
	.st0{opacity:0.5241;fill:#06A7E0;enable-background:new    ;}
	.st1{fill:#FFFFFF;}
</style>
<path id="Path" class="st0" d="M247.5,0.9c-0.6,3.5-1.4,7-2.3,10.4c-2.7,10.1-7.5,19.5-14,27.7c-6.8,8.2-15.3,14.6-25,18.7
	c-12,4.8-24.8,7-37.7,6.6c-15.9,0-31.8-2-46.1-10c-21-11.6-36.8-31.1-44-54.4L53.6,20.4C64.4,57.3,93.8,75.1,111.2,83s36.8,10,56,10
	c23,0,41.8-3.8,56.3-11.3c13.4-6.7,25.1-16.4,34.3-28.4c7-9.3,12.3-19.9,15.6-31.2L247.5,0.9z"/>
<path id="Thatshouldmakeyouhappy." class="st1" d="M9.6,58V44.5h5v-3.7H0.4v3.7h5V58H9.6z M20.2,58v-8.6c0.4-0.4,1.2-1,2.1-1
	c1.3,0,1.6,0.7,1.6,2V58H28v-8.6c0-2.8-1.5-4.3-4-4.3c-1.5,0-2.9,0.7-3.7,1.6v-5.9h-4.1V58H20.2z M33.7,58.3c1.7,0,3-0.7,3.9-1.8
	l0.4,1.5h3.2v-8.2c0-3.4-1.9-4.8-5.3-4.8c-2,0-4,0.7-5.5,1.8l1.3,2.4c1.2-0.6,2.3-1.1,3.7-1.1c1.2,0,1.8,0.6,1.8,1.8v0.7
	c-0.5-0.1-1-0.1-1.7-0.1c-4.1,0-5.7,1.8-5.7,4C29.7,57.1,31.3,58.3,33.7,58.3z M35.2,55.5c-1,0-1.5-0.5-1.5-1.2c0-1.2,1-1.5,2.2-1.5
	c0.5,0,0.8,0,1.2,0.1v0.6C37.1,54.6,36.3,55.5,35.2,55.5z M47.4,58.3c1.1,0,2-0.2,3-0.5l-0.4-2.7c-0.3,0.1-0.7,0.2-1,0.2
	c-0.6,0-0.8-0.2-0.8-0.9v-6.1h2.1v-3h-2.1v-3.8h-3.6l-0.4,3.8L42.5,46v2.3h1.7v6.9C44.2,57.1,45.2,58.3,47.4,58.3z M62.1,58.3
	c3.2,0,5.3-1.5,5.3-4.3c0-2.3-1.3-3.1-3.9-3.9c-1.8-0.5-2.4-0.7-2.4-1.3c0-0.5,0.4-0.8,1.2-0.8c1,0,2.1,0.5,3.4,1.2l1.7-2.2
	c-1.4-1.3-3.2-2-5.3-2c-3.2,0-5.3,1.6-5.3,4.2c0,2.3,1.4,3.3,4,4c1.8,0.4,2.2,0.7,2.2,1.3c0,0.5-0.4,0.8-1.3,0.8
	c-1,0-2.7-0.6-3.9-1.5L56.2,56C57.5,57.3,59.6,58.3,62.1,58.3z M73.4,58v-8.6c0.4-0.4,1.2-1,2.1-1c1.3,0,1.6,0.7,1.6,2V58h4.1v-8.6
	c0-2.8-1.5-4.3-4-4.3c-1.5,0-2.9,0.7-3.7,1.6v-5.9h-4.1V58H73.4z M89.4,58.3c3.9,0,6.8-2.2,6.8-6.7S93.4,45,89.7,45
	C86,45,83,47.2,83,51.7C83,56.1,85.5,58.3,89.4,58.3z M89.6,55c-1.4,0-2.4-0.9-2.4-3.3c0-2.3,1-3.3,2.4-3.3c1.4,0,2.4,0.9,2.4,3.3
	C92,54.1,91,55,89.6,55z M102.2,58.3c1.8,0,2.9-0.8,3.9-1.8l0.4,1.5h3.3V45.3h-4.1V54c-0.5,0.5-1.2,0.9-2.1,0.9
	c-1.1,0-1.5-0.7-1.5-2v-7.7h-4.1V54C98.1,56.7,99.3,58.3,102.2,58.3z M116.2,58V40.7h-4.1V58H116.2z M123.3,58.3
	c1.9,0,3.1-0.9,3.8-1.8l0.2,1.5h3.6V40.7h-4.1v5.7c-0.8-0.8-2-1.4-3.4-1.4c-2.9,0-5.4,2.2-5.4,6.7C118.1,55.9,119.8,58.3,123.3,58.3
	z M124.7,55c-1.8,0-2.3-1.4-2.3-3.3c0-2.3,0.8-3.3,2.3-3.3c1,0,1.8,0.6,2.2,1v4.5C126.4,54.4,125.7,55,124.7,55z M142.2,58v-8.7
	c0.3-0.4,1.1-0.9,1.9-0.9c1,0,1.1,0.6,1.1,1.7V58h4.1v-8.7c0.3-0.3,1-0.8,1.8-0.8c1,0,1.2,0.6,1.2,1.6v8h4.1v-8.8
	c0-2.7-1.3-4.2-3.6-4.2c-1.8,0-3.1,0.8-4,1.7c-0.6-1.1-1.6-1.7-3.1-1.7c-1.8,0-3,0.9-3.8,1.8l-0.4-1.5h-3.4V58H142.2z M162.1,58.3
	c1.7,0,3-0.7,3.9-1.8l0.4,1.5h3.2v-8.2c0-3.4-1.9-4.8-5.3-4.8c-2,0-4,0.7-5.5,1.8l1.3,2.4c1.2-0.6,2.3-1.1,3.7-1.1
	c1.2,0,1.8,0.6,1.8,1.8v0.7c-0.5-0.1-1-0.1-1.7-0.1c-4.1,0-5.7,1.8-5.7,4C158.1,57.1,159.7,58.3,162.1,58.3z M163.6,55.5
	c-1,0-1.5-0.5-1.5-1.2c0-1.2,1-1.5,2.2-1.5c0.5,0,0.8,0,1.2,0.1v0.6C165.5,54.6,164.7,55.5,163.6,55.5z M175.9,58v-5.3h0.7l3.1,5.3
	h4.7l-4.3-7.1l3.7-5.6h-4.4l-2.5,4.1h-1v-8.7h-4.1V58H175.9z M191.5,58.3c2.1,0,3.8-0.6,5.4-1.6l-1.1-2.5c-1.6,0.7-2.6,0.9-3.7,0.9
	c-1.8,0-2.4-1.1-2.6-2.3h7.8c0-0.3,0.1-1.4,0.1-1.8c0-4-2.1-6-5.8-6c-4,0-6.4,2.6-6.4,6.7C185.1,55.9,187.4,58.3,191.5,58.3z
	 M193.4,50.3h-4c0-0.9,0.6-2.3,2.2-2.3C193,48,193.4,49,193.4,50.3z M206.4,62.9c3.2,0,3.9-1.8,5.3-5.6l4.4-12H212l-2.4,8.7
	l-2.4-8.7H203l4.6,12.8l-0.1,0.3c-0.4,1.2-0.9,1.4-1.7,1.4c-0.7,0-1.4-0.1-1.8-0.1l-0.3,2.8C204.4,62.7,205.3,62.9,206.4,62.9z
	 M223.4,58.3c3.9,0,6.8-2.2,6.8-6.7s-2.9-6.6-6.6-6.6s-6.7,2.2-6.7,6.7C216.9,56.1,219.5,58.3,223.4,58.3z M223.6,55
	c-1.4,0-2.4-0.9-2.4-3.3c0-2.3,1-3.3,2.4-3.3c1.4,0,2.4,0.9,2.4,3.3C225.9,54.1,225,55,223.6,55z M236.1,58.3c1.8,0,2.9-0.8,3.9-1.8
	l0.4,1.5h3.3V45.3h-4.1V54c-0.5,0.5-1.2,0.9-2.1,0.9c-1.1,0-1.5-0.7-1.5-2v-7.7H232V54C232,56.7,233.3,58.3,236.1,58.3z M255.1,58
	v-8.6c0.4-0.4,1.2-1,2.1-1c1.3,0,1.6,0.7,1.6,2V58h4.1v-8.6c0-2.8-1.5-4.3-4-4.3c-1.5,0-2.9,0.7-3.7,1.6v-5.9H251V58H255.1z
	 M268.5,58.3c1.7,0,3-0.7,3.9-1.8l0.4,1.5h3.2v-8.2c0-3.4-1.9-4.8-5.3-4.8c-2,0-4,0.7-5.5,1.8l1.3,2.4c1.2-0.6,2.3-1.1,3.7-1.1
	c1.2,0,1.8,0.6,1.8,1.8v0.7c-0.5-0.1-1-0.1-1.7-0.1c-4.1,0-5.7,1.8-5.7,4C264.5,57.1,266.2,58.3,268.5,58.3z M270,55.5
	c-1,0-1.5-0.5-1.5-1.2c0-1.2,1-1.5,2.2-1.5c0.5,0,0.8,0,1.2,0.1v0.6C271.9,54.6,271.1,55.5,270,55.5z M282.3,62.8v-5.9
	c0.6,0.5,1.7,1.3,3.5,1.3c3.5,0,5.3-2.5,5.3-6.7c0-4.5-2.2-6.6-5.1-6.6c-1.6,0-2.9,0.6-4,1.8l-0.5-1.5h-3.3v17.5H282.3z M284.6,55
	c-1,0-1.9-0.7-2.3-1v-4.4c0.4-0.5,1.4-1.2,2.4-1.2c1.5,0,2.1,1.1,2.1,3.4C286.8,54.1,285.9,55,284.6,55z M297.1,62.8v-5.9
	c0.6,0.5,1.7,1.3,3.5,1.3c3.5,0,5.3-2.5,5.3-6.7c0-4.5-2.2-6.6-5.1-6.6c-1.6,0-2.9,0.6-4,1.8l-0.5-1.5H293v17.5H297.1z M299.4,55
	c-1,0-1.9-0.7-2.3-1v-4.4c0.4-0.5,1.4-1.2,2.4-1.2c1.5,0,2.1,1.1,2.1,3.4C301.6,54.1,300.7,55,299.4,55z M310.2,62.9
	c3.2,0,3.9-1.8,5.3-5.6l4.4-12h-4.1l-2.4,8.7l-2.4-8.7h-4.2l4.6,12.8l-0.1,0.3c-0.4,1.2-0.9,1.4-1.7,1.4c-0.7,0-1.4-0.1-1.8-0.1
	l-0.3,2.8C308.2,62.7,309.1,62.9,310.2,62.9z M323.1,58.3c1.4,0,2.2-0.9,2.2-2.1s-0.8-2-2.2-2c-1.4,0-2.2,0.8-2.2,2.1
	C320.9,57.4,321.6,58.3,323.1,58.3z"/>
</svg>
